PathFileType	4	(X/Y/Z)	c:/Users/goper/Files/vsCode/490R/osim_files/C08/C08_Fast_05.trc
DataRate	CameraRate	NumFrames	NumMarkers	Units                	OrigDataRate	OrigDataStartFrame	OrigNumFrames
250.00	250.00	5	36	mm	250.0	1061	2121
                Frame#	Time	LPSIS			LASIS			LTH1			LTH2			LTH3			LTH4			LLFE			LMFE			LSH1			LSH2			LSH3			LSH4			LLMAL			LMMAL			LCAL			LMTP5			LTOE			LMTP1			RPSIS			RASIS			RTH1			RTH2			RTH3			RTH4			RLFE			RMFE			RSH1			RSH2			RSH3			RSH4			RLMAL			RMMAL			RCAL			RMTP1			RTOE			RMTP5		
		X1	Y1	Z1	X2	Y2	Z2	X3	Y3	Z3	X4	Y4	Z4	X5	Y5	Z5	X6	Y6	Z6	X7	Y7	Z7	X8	Y8	Z8	X9	Y9	Z9	X10	Y10	Z10	X11	Y11	Z11	X12	Y12	Z12	X13	Y13	Z13	X14	Y14	Z14	X15	Y15	Z15	X16	Y16	Z16	X17	Y17	Z17	X18	Y18	Z18	X19	Y19	Z19	X20	Y20	Z20	X21	Y21	Z21	X22	Y22	Z22	X23	Y23	Z23	X24	Y24	Z24	X25	Y25	Z25	X26	Y26	Z26	X27	Y27	Z27	X28	Y28	Z28	X29	Y29	Z29	X30	Y30	Z30	X31	Y31	Z31	X32	Y32	Z32	X33	Y33	Z33	X34	Y34	Z34	X35	Y35	Z35	X36	Y36	Z36

1061	4.24000	-918.40375	1052.48743	217.62373	-1123.79846	1020.86285	296.07220	-1124.40833	748.93982	387.50455	-1155.28345	676.71210	376.61664	-1184.83350	608.06708	370.57639	-1226.19189	712.20837	362.38092	-1196.07654	562.33942	363.01999	-1222.43787	555.27252	236.53746	-1114.63684	480.00012	360.96341	-1094.53247	434.49478	363.79636	-1166.08228	454.72556	372.85370	-1142.81323	414.88089	371.38391	-987.80084	181.87419	315.40317	-1024.88538	176.60437	232.48248	-928.88690	186.45439	251.08078	-1058.50220	78.49227	359.89182	-1128.50464	73.95604	310.36633	-1097.62451	63.35373	255.44545	-919.96503	1052.36377	157.03940	-1113.75073	1020.07458	65.29733	-1048.39514	750.03632	14.10383	-1046.43958	672.46747	35.36800	-1041.65503	594.33618	49.21014	-1118.15295	676.27332	66.20166	-1041.99072	522.71875	67.57536	-1030.80859	521.75250	190.15685	-981.14648	442.12738	49.95398	-983.75433	397.22986	47.77613	-1041.71838	437.71024	62.99136	-1036.15723	393.33484	59.19425	-945.09094	102.01730	115.48731	-972.14667	105.93198	204.41090	-883.80524	79.74744	185.02025	-1096.98743	42.77162	192.16122	-1116.36084	61.54057	138.73727	-1063.89648	45.07484	78.34082
1062	4.24400	-923.64215	1052.56775	217.95528	-1129.34778	1020.66193	295.41370	-1131.76868	749.59369	387.35043	-1162.80688	677.49847	376.11993	-1192.69849	609.02783	369.76779	-1233.45300	713.37225	361.22797	-1204.32751	563.30334	362.27463	-1229.23486	556.21326	235.62195	-1123.39612	478.98428	361.55133	-1105.85510	433.12372	364.58545	-1175.65613	454.85495	372.29596	-1153.31763	414.49438	370.96384	-1003.48706	177.82729	315.80542	-1039.77124	173.04968	233.55353	-944.19421	180.68881	251.58145	-1076.79407	76.48592	360.71475	-1146.77527	73.53918	311.15845	-1116.67139	62.34626	256.12326	-925.04572	1052.41895	157.36340	-1118.45227	1019.61200	65.00015	-1052.29993	749.82104	14.26215	-1049.03955	672.40515	35.20696	-1043.60132	594.47815	48.84190	-1121.60669	675.69073	66.01211	-1043.53125	522.64020	67.45609	-1033.27454	521.62238	190.15810	-982.37018	442.29379	50.00533	-984.73657	397.41248	47.80064	-1042.95508	437.67728	62.90714	-1037.25220	393.33997	59.04524	-945.00232	102.51649	115.55820	-973.12524	106.04685	204.15605	-883.24963	80.34490	184.97105	-1097.07874	42.71317	192.12987	-1116.49207	61.43122	138.70602	-1063.93091	45.02198	78.32970
1063	4.24800	-928.87366	1052.61304	218.34613	-1134.95508	1020.38013	294.87393	-1138.99890	750.09937	387.15555	-1170.32520	678.22125	375.64813	-1200.33203	609.89270	368.97342	-1240.58643	714.39142	360.05402	-1212.50793	564.59137	361.43100	-1236.05554	557.06726	234.75146	-1132.25183	477.82047	361.27542	-1115.99060	431.71442	364.42249	-1185.10535	454.87817	371.80597	-1163.69495	414.06311	370.58640	-1019.22943	173.81339	316.20428	-1055.61072	169.38383	233.92047	-959.76721	174.80965	252.07687	-1095.11536	74.64108	361.58731	-1164.85095	73.17452	311.85654	-1135.33789	61.06900	257.06046	-930.05151	1052.43127	157.74202	-1121.67798	1018.85370	64.58231	-1055.47302	749.74213	14.14027	-1051.67627	672.35181	35.07603	-1045.77429	594.36578	48.96360	-1124.27295	675.13043	65.74381	-1045.16187	522.55072	67.35932	-1035.68909	521.19196	193.33379	-983.54517	442.49628	50.08569	-985.77283	397.60535	47.84775	-1044.13757	437.64777	62.82766	-1038.21753	393.32031	59.02905	-945.24713	102.71876	115.69675	-973.34955	106.15945	204.24068	-884.07465	80.20227	185.21947	-1097.17200	42.65714	192.10995	-1116.60107	61.27926	138.67308	-1063.98755	44.97966	78.32478
1064	4.25200	-934.13135	1052.62463	218.74095	-1140.55457	1019.97040	294.41391	-1145.75159	750.25494	386.92670	-1177.65149	678.84338	375.04724	-1207.86182	610.65588	368.13751	-1247.66943	715.35699	358.90070	-1219.97241	565.01904	360.53720	-1242.76013	557.74078	233.82083	-1141.04761	476.58145	360.97110	-1125.99316	430.22830	364.22543	-1194.46387	454.83124	371.28293	-1173.99207	413.60382	370.17950	-1034.91125	169.82315	316.66635	-1071.61169	165.70049	234.50237	-975.75916	168.93538	252.24243	-1113.32605	72.86803	362.51660	-1184.03967	73.58541	313.42227	-1154.06763	59.93782	257.98672	-935.04919	1052.43250	158.11282	-1127.87537	1018.66119	64.41173	-1058.60522	749.65338	14.04459	-1054.33643	672.25549	34.96621	-1047.77527	594.47430	48.65522	-1126.14124	674.59088	65.45280	-1046.86414	522.44690	67.26555	-1037.50989	520.75922	192.46069	-984.77222	442.70233	50.14553	-986.78778	397.80310	47.91287	-1045.37756	437.58551	62.78428	-1039.32141	393.33786	58.95893	-945.42169	102.93286	115.79729	-973.63928	106.23803	204.39638	-884.34210	80.29678	185.41785	-1096.82068	42.34903	192.23134	-1116.71985	61.15263	138.64290	-1063.99683	44.91939	78.30471
1065	4.25600	-939.34039	1052.56213	219.16100	-1146.09094	1019.52307	294.05139	-1152.79248	750.77539	386.58801	-1184.84351	679.35974	374.44485	-1215.29236	611.30365	367.28979	-1254.54321	716.15900	357.76694	-1227.65051	565.68665	359.64481	-1249.40588	558.31232	232.91809	-1149.79736	475.14346	360.25153	-1135.21777	428.88037	363.56833	-1203.73035	454.74969	370.73962	-1184.30701	413.09454	369.76376	-1050.76306	165.84547	317.14294	-1087.47229	162.30104	234.98514	-991.61859	163.22867	252.65280	-1131.75757	71.22155	363.30307	-1202.19373	73.70998	314.46451	-1173.07788	58.82243	258.78809	-940.03662	1052.38306	158.56885	-1132.60706	1018.11816	64.06458	-1061.75562	749.51581	13.90061	-1056.96338	672.16406	34.87141	-1049.42432	594.74927	48.25766	-1128.91199	674.07190	65.20545	-1048.45850	522.34912	67.19198	-1039.24988	521.24121	192.96422	-985.96088	442.94467	50.21535	-987.82727	398.01138	47.94785	-1046.57886	437.55527	62.69197	-1040.37146	393.34402	58.86051	-945.63422	103.15466	115.89292	-974.04779	106.31910	204.49187	-883.95337	80.80270	185.43164	-1096.89160	42.27700	192.22388	-1116.81409	60.99930	138.63411	-1064.02881	44.87531	78.31327
